<?xml version="1.0" encoding="UTF-8" standalone="no"?>
<!-- Created with Inkscape (http://www.inkscape.org/) -->

<svg
   width="197.03642mm"
   height="75.642517mm"
   viewBox="0 0 197.03642 75.642517"
   version="1.1"
   id="svg1"
   xml:space="preserve"
   xmlns="http://www.w3.org/2000/svg"
   xmlns:svg="http://www.w3.org/2000/svg"><defs
     id="defs1" /><g
     id="layer1"
     transform="translate(-8.9565825,-93.284694)"><path
       d="m 107.18984,93.286296 c -1.54197,0.04037 -3.00512,0.921935 -3.00912,2.609143 -7.1e-4,0.311469 -0.50411,0.495942 -2.20658,0.807702 -5.743683,1.051779 -11.638308,3.517309 -15.54479,6.501929 -1.148252,0.87728 -1.148422,0.87702 -1.74408,0.16847 -2.708046,-3.22128 -7.75437,0.78877 -5.312337,4.22144 0.495847,0.69699 0.495775,0.69737 -1.526005,3.37189 -1.273921,1.68521 -2.542885,3.75251 -3.430798,5.58932 -1.30893,2.70774 -1.460049,2.91527 -2.120801,2.92127 -3.306913,0.0287 -4.700993,5.12783 -1.665532,6.09214 0.391444,0.12435 0.426777,0.27949 0.243396,1.0697 -0.417204,1.79779 -0.310833,2.29185 0.492477,2.29185 0.817763,0 1.020093,-0.34612 1.020093,-1.74408 0,-0.77675 0.105708,-0.9892 0.559139,-1.12706 2.456303,-0.74681 3.303141,-3.38392 1.716691,-5.3449 -1.122879,-1.38797 5.209114,-11.17509 7.231083,-11.17709 1.750393,-0.002 3.653924,-1.62861 3.656624,-3.12539 0.0038,-2.09568 9.974367,-7.014334 16.51889,-8.14886 1.98713,-0.344479 1.98725,-0.344273 2.87166,0.597379 1.55092,1.651301 3.65752,1.545771 4.98367,-0.249597 0.67406,-0.91255 1.02743,-0.934625 4.43281,-0.273885 6.40991,1.243707 15.65186,5.691033 15.65486,7.533393 7.4e-4,0.42734 0.31933,1.03603 0.85162,1.62574 0.85072,0.94245 0.85099,0.9425 0.18656,0.9958 -0.36543,0.0293 -0.79566,0.23032 -0.95602,0.447 -0.25447,0.34387 -0.60171,0.17013 -2.73213,-1.36529 -13.2227,-9.529758 -29.159183,-8.733708 -41.813987,2.08876 -5.092712,4.35532 -9.928393,13.16589 -9.931693,18.09502 -0.0013,1.90944 1.325844,1.42771 1.591634,-0.57774 0.601741,-4.54032 3.952983,-11.02057 7.676534,-14.84457 1.244872,-1.27845 2.120371,-1.71796 1.810225,-0.90899 -0.388615,1.01365 -0.431282,1.65909 -0.152962,2.33164 0.287933,0.69577 0.22619,0.83031 -1.342037,2.91662 -2.477769,3.29631 -5.833344,11.14892 -5.075142,11.87628 0.793794,0.76151 1.293772,0.20175 1.85415,-2.07585 1.266608,-5.14797 4.944743,-10.96497 6.885884,-10.88977 1.231996,0.0477 1.930765,-0.41205 2.578654,-1.6955 1.087228,-2.15378 5.66415,-4.77658 10.45879,-5.99395 2.88177,-0.7317 2.65336,-0.7437 3.02721,0.15968 0.96744,2.33781 3.78925,2.318 4.67878,-0.0326 0.37175,-0.98234 5.35619,0.68069 7.9866,1.27021 0.29533,0.0662 0.58153,0.16797 0.87178,0.25373 0.29043,0.0858 0.592,0.14137 0.87023,0.26096 0.61219,0.26314 1.2554,0.53088 1.73426,0.99426 0.52426,0.50731 1.16652,1.09812 1.15032,1.8619 -0.0487,2.29406 -0.70178,2.47534 -3.48816,0.96738 -7.57337,-4.09861 -16.35268,-3.80378 -23.671426,0.7953 -1.191467,0.74871 -2.473729,1.4229 -2.849438,1.4981 -2.618349,0.52415 -9.164091,12.1934 -7.251754,12.9279 0.534279,0.20522 1.087789,-0.10849 1.087789,-0.6165 0,-0.25382 0.280902,-1.28815 0.624251,-2.29857 1.184063,-3.48448 4.901786,-9.378 5.585189,-7.85068 0.08657,0.19347 0.399223,0.78479 0.886768,1.27279 0.886443,0.88725 0.886439,0.88685 -0.329696,1.98127 -1.534554,1.38096 -3.785815,5.83587 -3.785815,7.49153 0,0.8589 1.442322,-0.082 1.706355,-1.11311 0.907659,-3.54476 4.503085,-8.07021 4.503085,-5.66787 0,0.49736 0.227342,1.13457 0.552421,1.54823 0.438939,0.55853 0.466343,0.67007 0.131775,0.54157 -0.761143,-0.29235 -2.278777,2.13807 -2.472201,3.95944 -0.126964,1.1955 0.943862,1.13304 1.442289,-0.0842 1.436974,-3.50941 1.613957,-3.79142 2.299602,-3.66696 1.526481,0.27707 3.021496,-1.47225 2.530594,-2.96106 -0.565783,-1.71591 -1.501217,-2.14444 -3.366719,-1.54254 -0.537849,0.17354 -2.60811,-1.62069 -2.60811,-2.26033 0,-0.518 2.297785,-2.20174 4.308265,-3.15691 6.503686,-3.09012 12.384396,-3.09298 18.826756,-0.01 2.39451,1.14596 2.39487,1.14593 1.2423,2.29702 -1.15257,1.15109 -1.15291,1.15083 -2.64325,0.36277 -3.26368,-1.72579 -8.81755,-2.43558 -8.81755,-1.12706 0,0.51224 0.18392,0.89749 0.55191,1.15548 0.54451,0.38102 0.54506,0.38706 0.0336,0.38706 -1.21125,0 -2.83925,2.43313 -2.49907,3.73517 0.10355,0.39633 -0.0209,0.57732 -0.52814,0.76894 -3.71411,1.40302 -8.240187,6.9324 -5.674587,6.9324 0.396308,0 0.765732,-0.3619 1.332219,-1.30535 1.612218,-2.68506 4.783188,-4.87865 6.101438,-4.22041 0.65531,0.32722 0.99054,0.34059 2.22053,0.0863 2.33406,-0.48253 4.9077,0.98693 6.72466,3.83956 0.86736,1.36173 1.1256,1.5999 1.73529,1.5999 2.19055,0 -2.60528,-6.00091 -5.26272,-6.58513 -0.71381,-0.15691 -0.72981,-0.19339 -0.59377,-1.34307 0.1653,-1.39704 -0.35876,-2.63391 -1.29708,-3.06183 -1.19726,-0.54601 -0.74772,-0.9954 0.81908,-0.81855 3.357,0.37892 5.85399,1.48599 6.73964,2.98844 1.55804,2.6431 5.49372,1.19563 5.49372,-2.02054 0,-0.75307 2.18346,1.55402 3.75532,3.96771 0.84356,1.29536 2.45463,4.97399 2.45463,5.60535 0,0.13225 0.10914,0.52773 0.24237,0.87849 0.33419,0.87978 1.49603,0.91716 1.49603,0.0481 0,-2.74483 -4.84942,-11.2735 -7.13962,-12.55634 -0.58962,-0.33027 -0.169,-0.71527 0.99322,-0.90898 1.34073,-0.22347 2.82601,-0.97233 3.15743,-1.59216 1.28719,-2.40735 -1.4048,-5.19721 -3.70364,-3.838 -0.66467,0.39299 -0.48892,0.55314 -1.85726,-0.32298 -0.77456,-0.49593 -1.33229,-0.6917 -2.02675,-0.97359 -1.06638,-0.43285 -2.16695,-0.78144 -3.2737,-1.09709 -1.6103,-0.45927 -3.68208,-1.05443 -4.88859,-1.15651 -1.59535,-0.13498 -1.97556,-0.25349 -2.27273,-0.70745 -0.90755,-1.38636 -3.15975,-1.53785 -4.25762,-0.28629 -0.59724,0.68084 -0.97616,0.86506 -2.07532,1.00924 -3.12363,0.40972 -8.954832,2.91857 -11.145061,4.79505 -0.933198,0.79952 -1.088076,0.85838 -1.292944,0.49196 -0.49043,-0.87723 -1.593867,-1.21244 -2.602425,-0.79065 -2.912302,1.21795 1.15235,-2.38806 5.143355,-4.56302 8.763905,-4.77603 19.834405,-4.82639 28.519705,-0.12971 8.99856,4.86607 13.77078,11.23147 16.42691,21.91081 0.24493,0.98478 1.73426,1.70147 1.73426,0.83457 0,-3.74893 -4.35297,-12.99083 -8.23878,-17.49196 -1.23414,-1.42955 -1.23447,-1.42937 -0.0873,-1.42937 0.63093,0 1.4676,-0.16544 1.8588,-0.36793 0.68928,-0.35676 0.73449,-0.34158 1.4702,0.49713 2.54259,2.89852 6.50673,10.31254 5.51387,10.31254 -0.44711,0 -1.26194,1.68968 -1.26194,2.61638 0,1.16037 1.49031,2.73758 2.8236,2.98793 0.77378,0.1453 0.85262,0.24576 0.99219,1.26504 0.19415,1.41771 0.55444,2.08101 1.13016,2.08101 0.90862,0 1.06432,-0.57284 0.62787,-2.312 -0.39895,-1.58969 -0.39718,-1.62651 0.12454,-2.14871 1.8513,-1.853 0.89676,-4.81528 -1.66243,-5.15886 -0.64155,-0.0861 -1.05523,-0.27139 -1.05523,-0.47232 0,-1.24525 -5.39256,-9.9184 -6.59753,-10.61124 -0.265,-0.15237 -0.2078,-0.37941 0.27492,-1.0914 2.06848,-3.05087 -2.09638,-6.78763 -4.76664,-4.27674 -0.49992,0.47009 -0.68255,0.51867 -1.03094,0.27336 -4.93852,-3.477422 -10.63977,-5.79074 -16.63206,-6.747905 -2.25742,-0.360584 -2.68254,-0.500491 -2.76004,-0.908472 -0.31893,-1.678757 -1.93947,-2.479494 -3.48144,-2.439127 z m 0.16226,1.691886 c 0.2201,0.0037 0.44594,0.0571 0.66715,0.165881 0.91702,0.450952 1.16085,1.162787 0.74104,2.162142 -0.72753,1.731867 -3.56475,0.629979 -2.94194,-1.142566 0.26595,-0.756964 0.87345,-1.196482 1.53375,-1.185457 z M 82.19705,104.0691 c 1.3927,0 2.002251,1.4286 1.099674,2.5771 -0.303553,0.38626 -0.762237,0.65474 -1.117761,0.65474 -1.370119,0 -2.076591,-1.75689 -1.099674,-2.73471 0.273229,-0.27348 0.776224,-0.49713 1.117761,-0.49713 z m 50.75401,0.0853 c 0.16256,-0.0154 0.33802,-0.005 0.524,0.0357 1.22523,0.26935 1.67952,1.65663 0.80253,2.45102 -0.6103,0.55277 -1.32449,0.51828 -1.98282,-0.0956 -0.98493,-0.91844 -0.48166,-2.2833 0.65629,-2.39106 z m -25.66665,1.65519 c 1.1131,0 1.60294,1.71174 0.63768,2.22881 -0.66503,0.35624 -0.87093,0.32591 -1.3441,-0.19741 -0.77736,-0.85977 -0.37001,-2.0314 0.70642,-2.0314 z m 17.73793,5.32371 c 0.24678,-0.0325 0.50866,0.007 0.7581,0.14056 0.66594,0.35675 0.64396,1.12343 -0.046,1.60714 -0.76899,0.53911 -1.61664,0.4918 -1.80454,-0.10077 -0.25454,-0.80271 0.35212,-1.54934 1.09244,-1.64693 z m -36.196754,1.18959 c 0.924497,-0.11194 1.389161,0.56785 0.819071,1.19838 -0.537021,0.59394 -1.184665,0.63315 -1.627807,0.0987 -0.435285,-0.52496 -0.01619,-1.19718 0.808736,-1.29708 z m 31.337104,4.97127 c 0.99523,0.0967 1.22317,1.12739 0.42582,1.92547 -0.80343,0.80417 -2.00195,0.69739 -2.00195,-0.17829 0,-1.10844 0.65684,-1.83658 1.57613,-1.74718 z m -11.94139,1.96422 c 0.21753,0.0328 0.41594,0.11079 0.56999,0.23875 0.49901,0.41454 0.44385,1.56988 -0.0982,2.06085 -1.27723,1.15695 -3.07789,-0.0697 -2.25826,-1.5384 0.30981,-0.55514 1.13385,-0.85963 1.78645,-0.7612 z m 23.85126,1.93631 c 0.0232,-0.0186 -0.0246,-0.0871 -0.37879,0.17209 -0.35417,0.2592 0.29776,1.50217 0.39429,1.84846 0.0965,0.34629 0.0585,0.17508 0.0874,0.25233 0.0289,0.0773 0.0172,-0.0199 0.0847,0.21141 0.0675,0.23128 -0.10126,0.32812 0.22575,1.19663 0.32701,0.86851 0.59243,1.83943 0.76636,2.62568 h 5.2e-4 c 0.40879,1.84802 1.94054,2.31895 1.61695,0.49713 -0.39702,-2.23519 -1.7129,-4.09741 -1.7694,-4.77956 -0.0565,-0.68215 0.10599,-0.16229 -0.12765,-0.97613 -0.23364,-0.81384 -0.72341,-1.0708 -0.9002,-1.048 -0.17679,0.0228 -0.0232,0.0186 2e-5,0 0.0232,-0.0186 -0.0232,0.0185 5e-5,-4e-5 z m -10.46034,0.016 c -0.0915,-0.0161 -0.17264,-0.005 -0.24133,0.0382 -0.73525,0.45959 -0.70711,0.59401 0.43666,2.07791 0.96283,1.24916 1.47455,2.26666 2.35438,4.68085 0.41337,1.13427 0.92828,1.38042 1.60662,0.76843 0.92116,-0.83105 -2.78399,-7.32319 -4.15633,-7.56543 z m 20.91086,0.0191 c 0.80763,-0.0106 1.64745,0.48846 1.64745,1.29139 0,0.21338 -0.19552,0.61416 -0.4346,0.89091 -1.33723,1.54794 -3.55294,0.12598 -2.44378,-1.56838 0.27326,-0.41743 0.74636,-0.60756 1.23093,-0.61392 z m -45.04996,0.11834 c 0.492781,0 0.637329,0.14112 0.699699,0.68368 0.07094,0.61709 0.0027,0.68368 -0.699699,0.68368 -0.702371,0 -0.770639,-0.0666 -0.699699,-0.68368 0.06237,-0.54256 0.206919,-0.68368 0.699699,-0.68368 z m -25.085807,0.0372 c 1.186186,0.2052 1.861641,2.10023 0.61805,2.57348 -0.358691,0.13651 -0.672372,0.24055 -0.697632,0.23255 -1.805102,-0.61937 -2.089435,-2.35363 -0.455786,-2.78123 0.186196,-0.0487 0.365913,-0.0541 0.535368,-0.0248 z m 44.638617,1.08158 c -1.05341,0 -0.93274,0.89032 0.29301,2.16318 0.65738,0.68265 1.53984,1.97144 1.96112,2.86391 0.69298,1.46802 0.82654,1.61091 1.39991,1.5012 1.47943,-0.28306 -2.01618,-6.52829 -3.65404,-6.52829 z m -9.84022,2.05259 c -1.47467,0.002 -2.92491,0.40168 -4.05144,1.25212 -1.03559,0.78178 -2.30148,2.76747 -2.03708,3.19567 0.29746,0.48174 1.06069,0.15155 1.81177,-0.78393 2.25211,-2.80502 6.84338,-2.88756 9.46764,-0.17053 1.17159,1.21301 1.84273,0.92628 1.00563,-0.42943 -1.21259,-1.96381 -3.73875,-3.06665 -6.19652,-3.0639 z m -36.270142,8.97258 c -0.420064,-0.0553 -0.839034,0.0578 -1.221631,0.34365 -0.921201,0.68834 -1.194422,25.26567 -0.290938,26.16998 0.74189,0.74257 2.070598,0.6665 2.71663,-0.15555 0.787508,-1.00208 0.810107,-24.90543 0.02429,-25.69197 -0.386892,-0.38725 -0.808285,-0.61078 -1.228349,-0.66611 z m -53.530066,1.15704 c -7.309476,0 -7.309519,1.7e-4 -7.8243285,0.65525 -0.8061213,1.02576 -0.8061213,23.27147 0,24.29723 0.7145765,0.90928 14.9866575,1.05143 15.8791345,0.15813 0.690482,-0.69112 0.639516,-1.86868 -0.113172,-2.62206 -0.609684,-0.61024 -0.60955,-0.6103 -6.458004,-0.6103 -5.848455,0 -5.848738,2e-5 -5.848738,-3.60495 0,-3.60496 -5.7e-5,-3.60495 5.426025,-3.60495 6.061237,0 6.331397,-0.0759 6.331397,-1.78284 0,-1.75178 -0.655248,-1.94613 -6.554639,-1.94613 -5.202338,0 -5.202783,2e-5 -5.202783,-3.60495 0,-3.60496 2.06e-4,-3.60495 5.83737,-3.60495 6.596017,0 6.83059,-0.0644 6.83059,-1.865 0,-1.85155 -0.0579,-1.86448 -8.302852,-1.86448 z m 62.00035,0 c -2.479982,0 -3.221829,3.37922 -0.957047,4.35942 0.993886,0.43016 1.601745,0.26867 2.464449,-0.65371 1.420253,-1.51852 0.530465,-3.70571 -1.507402,-3.70571 z m 28.023098,0 c -2.56673,0 -3.29277,3.13577 -0.99322,4.28966 0.478,0.23987 1.01748,0.37957 1.19941,0.31057 0.18194,-0.0689 0.41822,-0.12506 0.52503,-0.12506 0.10681,0 0.48888,-0.29476 0.84904,-0.65525 1.46805,-1.4694 0.49586,-3.81992 -1.58026,-3.81992 z m 9.04647,0 c -1.50685,0 -1.96022,0.92927 -2.05052,4.20439 -0.0829,3.00551 -0.0827,3.0055 -0.77359,3.0055 -0.37998,0 -0.9857,0.23182 -1.34566,0.51522 -1.34585,1.05962 -0.44914,3.46283 1.29191,3.46283 0.72658,0 0.7264,0 0.82683,4.67362 0.13487,6.27593 1.24221,8.55488 4.67103,9.61285 3.12175,0.96321 6.51943,0.11449 6.66678,-1.66553 0.11877,-1.43497 -0.8422,-2.292 -2.2593,-2.01487 -4.35721,0.8521 -5.13529,-0.12559 -5.14129,-6.45076 -0.004,-4.42172 -0.004,-4.42154 3.36827,-4.35064 3.67073,0.0771 3.86797,0.007 4.24729,-1.50482 0.37521,-1.49567 -0.48684,-1.89764 -4.23023,-1.97404 -3.38903,-0.0692 -3.38894,-0.0693 -3.38894,-3.27629 0,-3.50146 -0.32703,-4.23746 -1.88258,-4.23746 z m 19.45463,0.0501 c -10.41681,-0.086 -11.376,0.11764 -10.71976,2.2779 0.40371,1.32889 0.64679,1.40146 4.72839,1.40146 3.80385,0 3.80387,-4.7e-4 3.87367,10.53993 0.066,9.96191 0.0959,10.56952 0.54312,11.06392 0.65563,0.72472 2.18687,0.71344 2.87063,-0.0212 0.49315,-0.52981 0.50642,-0.82044 0.50642,-11.07426 0,-10.53033 -2.5e-4,-10.53068 3.76567,-10.47998 4.17262,0.0562 4.6793,-0.13374 4.6793,-1.75339 0,-1.81869 -0.28007,-1.8721 -10.24744,-1.9544 z m -56.613598,6.42597 c -0.47445,0.0205 -0.956909,0.22172 -1.333252,0.59841 -0.993502,0.99442 -0.95291,17.48094 0.04496,18.26658 0.777861,0.61243 1.757467,0.6622 2.519226,0.12816 0.824409,-0.57797 0.875524,-17.68693 0.05529,-18.50791 -0.345241,-0.34556 -0.811776,-0.50571 -1.286226,-0.48524 z m 28.161068,0.003 c -1.09737,-0.18387 -2.13751,0.80602 -2.14509,2.41846 -0.0523,11.23393 0.12229,15.97773 0.60617,16.46204 0.66459,0.66524 1.92244,0.64459 2.6541,-0.0434 0.93119,-0.87561 0.8995,-17.30575 -0.0351,-18.24126 -0.34229,-0.34261 -0.71425,-0.53454 -1.08004,-0.59583 z m -65.476103,0.23409 c -0.697473,0 -1.531854,0.78124 -4.180624,3.91553 -2.116958,2.505 -1.680936,2.5569 -4.453474,-0.52917 -2.863852,-3.18772 -3.515171,-3.61565 -4.627108,-3.04012 -1.656553,0.85743 -1.333683,1.90771 1.603519,5.21828 3.831217,4.31824 3.80147,3.35474 0.229444,7.52667 -3.411589,3.98455 -3.583736,4.37917 -2.361613,5.40846 1.404516,1.18291 1.758926,0.97615 5.08186,-2.96571 1.331695,-1.57974 2.498734,-2.84048 2.593124,-2.80138 0.09439,0.0391 1.395983,1.46988 2.89233,3.17913 3.00554,3.43318 3.584257,3.75586 4.889107,2.72852 1.258827,-0.9911 0.663041,-2.09763 -3.8778,-7.20369 -2.028515,-2.28101 -2.081108,-1.79155 0.517798,-4.80591 3.333305,-3.86616 3.533118,-4.13791 3.533118,-4.79661 0,-0.79331 -1.044021,-1.834 -1.839681,-1.834 z m 121.912453,0.002 c -0.7721,0.0534 -1.58038,0.58005 -1.85156,1.4025 -0.27796,0.84303 -0.57414,1.04313 -0.8599,0.58033 -0.9758,-1.58032 -6.68542,-2.23323 -9.10384,-1.04076 -7.5549,3.72512 -6.8648,15.3529 1.05782,17.82526 2.52404,0.78767 6.06761,0.29154 7.83001,-1.09605 0.67917,-0.53472 0.67902,-0.53445 0.98754,0.19998 0.52382,1.24693 2.18997,1.70529 3.12384,0.85938 0.6644,-0.6018 0.70462,-17.54613 0.0434,-18.27743 -0.31342,-0.34665 -0.76406,-0.48525 -1.22732,-0.45321 z m -115.156793,0.0341 c -0.455082,-0.004 -0.92965,0.17791 -1.326017,0.57464 -1.180902,1.18197 -0.872745,25.77153 0.331762,26.47436 2.27953,1.33013 3.03289,0.003 3.03289,-5.34335 0,-4.57591 -6e-5,-4.57593 1.113627,-3.86901 6.439411,4.08751 14.782669,-1.79448 13.573332,-9.56944 -1.006425,-6.47041 -7.758497,-10.04548 -13.242086,-7.01146 -1.659944,0.91843 -1.659492,0.91822 -1.820044,0.18655 -0.199924,-0.91108 -0.904994,-1.43532 -1.663464,-1.44229 z m 137.532173,0.0703 c -1.03762,-0.1405 -2.10788,0.60563 -2.10788,1.7694 0,0.65494 -2.6e-4,0.65483 -0.74156,0.0305 -4.07647,-3.43328 -11.17975,-1.46811 -13.62294,3.76876 -3.77223,8.08562 6.41515,17.30792 13.30462,12.04423 1.13668,-0.86844 1.13661,-0.86836 0.98391,0.76843 -0.48183,5.16451 -6.17437,6.59194 -10.47274,2.62619 -1.27914,-1.18015 -2.30622,-1.06493 -3.24115,0.36329 -1.04911,1.60261 2.63884,4.70937 6.34845,5.34799 4.88611,0.84116 9.22623,-1.49249 10.81795,-5.8167 0.82699,-2.24668 0.58592,-19.68681 -0.28267,-20.44888 -0.29778,-0.26125 -0.64011,-0.40637 -0.98599,-0.4532 z m 12.47366,0.0475 c -4.8063,0.15615 -8.70219,3.74305 -6.62647,7.81555 0.891,1.74811 2.11525,2.40553 7.321,3.93361 2.22331,0.65262 2.85616,1.0996 2.85616,2.01589 0,1.99034 -4.27518,2.4493 -7.46725,0.80151 -1.82645,-0.94284 -1.81632,-0.94179 -2.7404,-0.28319 -1.87928,1.33939 -0.057,3.50944 3.74499,4.45968 5.18699,1.29638 9.89665,-0.96469 10.14512,-4.87051 0.19177,-3.01439 -1.2135,-4.4168 -5.79345,-5.78156 -4.12703,-1.22981 -4.84363,-1.62125 -4.84363,-2.64583 0,-1.85763 3.84157,-2.42336 6.90501,-1.01699 3.40572,1.56349 4.76992,-1.63472 1.4211,-3.33158 -1.61697,-0.81932 -3.32008,-1.14863 -4.92218,-1.09658 z m -105.108832,0.0796 c -0.717483,0.0358 -1.418169,0.15429 -2.073259,0.37208 -8.667731,2.8816 -8.48295,15.32129 0.270268,18.19372 5.052122,1.65789 13.548823,-3.33374 9.362733,-5.50044 -1.06453,-0.551 -1.423206,-0.46742 -2.658749,0.62115 -3.982935,3.50914 -9.80541,0.5528 -9.464539,-4.80539 0.310188,-4.87589 5.698262,-6.84391 9.595797,-3.5047 1.117111,0.95708 1.643801,1.04753 2.539381,0.43408 3.29119,-2.25436 -2.549248,-6.06122 -7.571632,-5.8105 z m 62.314542,3.63079 c 2.9081,-0.11537 5.88721,1.95337 5.92315,5.82549 0.0224,2.41369 -1.31078,4.48286 -3.47317,5.38985 -4.24476,1.78042 -8.8593,-2.30269 -7.68842,-6.80269 0.75774,-2.9122 2.97659,-4.32292 5.23844,-4.41265 z m 22.40483,0.0822 c 2.63709,-0.0428 5.33568,1.64952 5.90507,4.79299 0.41184,2.27358 -0.97956,4.96059 -3.12177,6.02908 -4.71088,2.34969 -9.83724,-2.54423 -7.79384,-7.44037 0.94546,-2.26541 2.95948,-3.34843 5.01054,-3.3817 z m -122.233361,0.0372 c 6.229274,-0.0228 7.937248,8.68017 2.177645,11.09597 -3.280898,1.37613 -7.26022,-0.98636 -7.683252,-4.56148 -0.445352,-3.76376 1.877804,-6.52129 5.505607,-6.53449 z"
       style="baseline-shift:baseline;display:inline;overflow:visible;vector-effect:none;enable-background:accumulate;stop-color:#000000;stop-opacity:1"
       id="path2" /></g></svg>
