<?xml version="1.0" encoding="UTF-8" standalone="no"?>
<!-- Created with Inkscape (http://www.inkscape.org/) -->

<svg
   width="197.03642mm"
   height="89.189362mm"
   viewBox="0 0 197.03642 89.189362"
   version="1.1"
   id="svg1"
   xml:space="preserve"
   xmlns="http://www.w3.org/2000/svg"
   xmlns:svg="http://www.w3.org/2000/svg"><defs
     id="defs1" /><g
     id="layer1"
     transform="translate(-8.9565825,-93.284694)"><path
       d="m 107.18984,93.286296 c -1.54197,0.04037 -3.00512,0.921935 -3.00912,2.609143 -7.1e-4,0.311469 -0.50411,0.495942 -2.20658,0.807702 -5.743683,1.051779 -11.638308,3.517309 -15.54479,6.501929 -1.148252,0.87728 -1.148422,0.87702 -1.74408,0.16847 -2.708046,-3.22128 -7.75437,0.78877 -5.312337,4.22144 0.495847,0.69699 0.495775,0.69737 -1.526005,3.37189 -1.273921,1.68521 -2.542885,3.75251 -3.430798,5.58932 -1.30893,2.70774 -1.460049,2.91527 -2.120801,2.92127 -3.306913,0.0287 -4.700993,5.12783 -1.665532,6.09214 0.391444,0.12435 0.426777,0.27949 0.243396,1.0697 -0.417204,1.79779 -0.310833,2.29185 0.492477,2.29185 0.817763,0 1.020093,-0.34612 1.020093,-1.74408 0,-0.77675 0.105708,-0.9892 0.559139,-1.12706 2.456303,-0.74681 3.303141,-3.38392 1.716691,-5.3449 -1.122879,-1.38797 5.209114,-11.17509 7.231083,-11.17709 1.750393,-0.002 3.653924,-1.62861 3.656624,-3.12539 0.0038,-2.09568 9.974367,-7.014334 16.51889,-8.14886 1.98713,-0.344479 1.98725,-0.344273 2.87166,0.597379 1.55092,1.651301 3.65752,1.545771 4.98367,-0.249597 0.67406,-0.91255 1.02743,-0.934625 4.43281,-0.273885 6.40991,1.243707 15.65186,5.691033 15.65486,7.533393 7.4e-4,0.42734 0.31933,1.03603 0.85162,1.62574 0.85072,0.94245 0.85099,0.9425 0.18656,0.9958 -0.36543,0.0293 -0.79566,0.23032 -0.95602,0.447 -0.25447,0.34387 -0.60171,0.17013 -2.73213,-1.36529 -13.2227,-9.529758 -29.159183,-8.733708 -41.813987,2.08876 -5.092712,4.35532 -9.928393,13.16589 -9.931693,18.09502 -0.0013,1.90944 1.325844,1.42771 1.591634,-0.57774 0.601741,-4.54032 3.952983,-11.02057 7.676534,-14.84457 1.244872,-1.27845 2.120371,-1.71796 1.810225,-0.90899 -0.388615,1.01365 -0.431282,1.65909 -0.152962,2.33164 0.287933,0.69577 0.22619,0.83031 -1.342037,2.91662 -2.477769,3.29631 -5.833344,11.14892 -5.075142,11.87628 0.793794,0.76151 1.293772,0.20175 1.85415,-2.07585 1.266608,-5.14797 4.944743,-10.96497 6.885884,-10.88977 1.231996,0.0477 1.930765,-0.41205 2.578654,-1.6955 1.087228,-2.15378 5.66415,-4.77658 10.45879,-5.99395 2.88177,-0.7317 2.65336,-0.7437 3.02721,0.15968 0.96744,2.33781 3.78925,2.318 4.67878,-0.0326 0.37175,-0.98234 5.35619,0.68069 7.9866,1.27021 0.29533,0.0662 0.58153,0.16797 0.87178,0.25373 0.29043,0.0858 0.592,0.14137 0.87023,0.26096 0.61219,0.26314 1.2554,0.53088 1.73426,0.99426 0.52426,0.50731 1.16652,1.09812 1.15032,1.8619 -0.0487,2.29406 -0.70178,2.47534 -3.48816,0.96738 -7.57337,-4.09861 -16.35268,-3.80378 -23.671426,0.7953 -1.191467,0.74871 -2.473729,1.4229 -2.849438,1.4981 -2.618349,0.52415 -9.164091,12.1934 -7.251754,12.9279 0.534279,0.20522 1.087789,-0.10849 1.087789,-0.6165 0,-0.25382 0.280902,-1.28815 0.624251,-2.29857 1.184063,-3.48448 4.901786,-9.378 5.585189,-7.85068 0.08657,0.19347 0.399223,0.78479 0.886768,1.27279 0.886443,0.88725 0.886439,0.88685 -0.329696,1.98127 -1.534554,1.38096 -3.785815,5.83587 -3.785815,7.49153 0,0.8589 1.442322,-0.082 1.706355,-1.11311 0.907659,-3.54476 4.503085,-8.07021 4.503085,-5.66787 0,0.49736 0.227342,1.13457 0.552421,1.54823 0.438939,0.55853 0.466343,0.67007 0.131775,0.54157 -0.761143,-0.29235 -2.278777,2.13807 -2.472201,3.95944 -0.126964,1.1955 0.943862,1.13304 1.442289,-0.0842 1.436974,-3.50941 1.613957,-3.79142 2.299602,-3.66696 1.526481,0.27707 3.021496,-1.47225 2.530594,-2.96106 -0.565783,-1.71591 -1.501217,-2.14444 -3.366719,-1.54254 -0.537849,0.17354 -2.60811,-1.62069 -2.60811,-2.26033 0,-0.518 2.297785,-2.20174 4.308265,-3.15691 6.503686,-3.09012 12.384396,-3.09298 18.826756,-0.01 2.39451,1.14596 2.39487,1.14593 1.2423,2.29702 -1.15257,1.15109 -1.15291,1.15083 -2.64325,0.36277 -3.26368,-1.72579 -8.81755,-2.43558 -8.81755,-1.12706 0,0.51224 0.18392,0.89749 0.55191,1.15548 0.54451,0.38102 0.54506,0.38706 0.0336,0.38706 -1.21125,0 -2.83925,2.43313 -2.49907,3.73517 0.10355,0.39633 -0.0209,0.57732 -0.52814,0.76894 -3.71411,1.40302 -8.240187,6.9324 -5.674587,6.9324 0.396308,0 0.765732,-0.3619 1.332219,-1.30535 1.612218,-2.68506 4.783188,-4.87865 6.101438,-4.22041 0.65531,0.32722 0.99054,0.34059 2.22053,0.0863 2.33406,-0.48253 4.9077,0.98693 6.72466,3.83956 0.86736,1.36173 1.1256,1.5999 1.73529,1.5999 2.19055,0 -2.60528,-6.00091 -5.26272,-6.58513 -0.71381,-0.15691 -0.72981,-0.19339 -0.59377,-1.34307 0.1653,-1.39704 -0.35876,-2.63391 -1.29708,-3.06183 -1.19726,-0.54601 -0.74772,-0.9954 0.81908,-0.81855 3.357,0.37892 5.85399,1.48599 6.73964,2.98844 1.55804,2.6431 5.49372,1.19563 5.49372,-2.02054 0,-0.75307 2.18346,1.55402 3.75532,3.96771 0.84356,1.29536 2.45463,4.97399 2.45463,5.60535 0,0.13225 0.10914,0.52773 0.24237,0.87849 0.33419,0.87978 1.49603,0.91716 1.49603,0.0481 0,-2.74483 -4.84942,-11.2735 -7.13962,-12.55634 -0.58962,-0.33027 -0.169,-0.71527 0.99322,-0.90898 1.34073,-0.22347 2.82601,-0.97233 3.15743,-1.59216 1.28719,-2.40735 -1.4048,-5.19721 -3.70364,-3.838 -0.66467,0.39299 -0.48892,0.55314 -1.85726,-0.32298 -0.77456,-0.49593 -1.33229,-0.6917 -2.02675,-0.97359 -1.06638,-0.43285 -2.16695,-0.78144 -3.2737,-1.09709 -1.6103,-0.45927 -3.68208,-1.05443 -4.88859,-1.15651 -1.59535,-0.13498 -1.97556,-0.25349 -2.27273,-0.70745 -0.90755,-1.38636 -3.15975,-1.53785 -4.25762,-0.28629 -0.59724,0.68084 -0.97616,0.86506 -2.07532,1.00924 -3.12363,0.40972 -8.954832,2.91857 -11.145061,4.79505 -0.933198,0.79952 -1.088076,0.85838 -1.292944,0.49196 -0.49043,-0.87723 -1.593867,-1.21244 -2.602425,-0.79065 -2.912302,1.21795 1.15235,-2.38806 5.143355,-4.56302 8.763905,-4.77603 19.834405,-4.82639 28.519705,-0.12971 8.99856,4.86607 13.77078,11.23147 16.42691,21.91081 0.24493,0.98478 1.73426,1.70147 1.73426,0.83457 0,-3.74893 -4.35297,-12.99083 -8.23878,-17.49196 -1.23414,-1.42955 -1.23447,-1.42937 -0.0873,-1.42937 0.63093,0 1.4676,-0.16544 1.8588,-0.36793 0.68928,-0.35676 0.73449,-0.34158 1.4702,0.49713 2.54259,2.89852 6.50673,10.31254 5.51387,10.31254 -0.44711,0 -1.26194,1.68968 -1.26194,2.61638 0,1.16037 1.49031,2.73758 2.8236,2.98793 0.77378,0.1453 0.85262,0.24576 0.99219,1.26504 0.19415,1.41771 0.55444,2.08101 1.13016,2.08101 0.90862,0 1.06432,-0.57284 0.62787,-2.312 -0.39895,-1.58969 -0.39718,-1.62651 0.12454,-2.14871 1.8513,-1.853 0.89676,-4.81528 -1.66243,-5.15886 -0.64155,-0.0861 -1.05523,-0.27139 -1.05523,-0.47232 0,-1.24525 -5.39256,-9.9184 -6.59753,-10.61124 -0.265,-0.15237 -0.2078,-0.37941 0.27492,-1.0914 2.06848,-3.05087 -2.09638,-6.78763 -4.76664,-4.27674 -0.49992,0.47009 -0.68255,0.51867 -1.03094,0.27336 -4.93852,-3.477422 -10.63977,-5.79074 -16.63206,-6.747905 -2.25742,-0.360584 -2.68254,-0.500491 -2.76004,-0.908472 -0.31893,-1.678757 -1.93947,-2.479494 -3.48144,-2.439127 z m 0.16226,1.691886 c 0.2201,0.0037 0.44594,0.0571 0.66715,0.165881 0.91702,0.450952 1.16085,1.162787 0.74104,2.162142 -0.72753,1.731867 -3.56475,0.629979 -2.94194,-1.142566 0.26595,-0.756964 0.87345,-1.196482 1.53375,-1.185457 z M 82.19705,104.0691 c 1.3927,0 2.002251,1.4286 1.099674,2.5771 -0.303553,0.38626 -0.762237,0.65474 -1.117761,0.65474 -1.370119,0 -2.076591,-1.75689 -1.099674,-2.73471 0.273229,-0.27348 0.776224,-0.49713 1.117761,-0.49713 z m 50.75401,0.0853 c 0.16256,-0.0154 0.33802,-0.005 0.524,0.0357 1.22523,0.26935 1.67952,1.65663 0.80253,2.45102 -0.6103,0.55277 -1.32449,0.51828 -1.98282,-0.0956 -0.98493,-0.91844 -0.48166,-2.2833 0.65629,-2.39106 z m -25.66665,1.65519 c 1.1131,0 1.60294,1.71174 0.63768,2.22881 -0.66503,0.35624 -0.87093,0.32591 -1.3441,-0.19741 -0.77736,-0.85977 -0.37001,-2.0314 0.70642,-2.0314 z m 17.73793,5.32371 c 0.24678,-0.0325 0.50866,0.007 0.7581,0.14056 0.66594,0.35675 0.64396,1.12343 -0.046,1.60714 -0.76899,0.53911 -1.61664,0.4918 -1.80454,-0.10077 -0.25454,-0.80271 0.35212,-1.54934 1.09244,-1.64693 z m -36.196754,1.18959 c 0.924497,-0.11194 1.389161,0.56785 0.819071,1.19838 -0.537021,0.59394 -1.184665,0.63315 -1.627807,0.0987 -0.435285,-0.52496 -0.01619,-1.19718 0.808736,-1.29708 z m 31.337104,4.97127 c 0.99523,0.0967 1.22317,1.12739 0.42582,1.92547 -0.80343,0.80417 -2.00195,0.69739 -2.00195,-0.17829 0,-1.10844 0.65684,-1.83658 1.57613,-1.74718 z m -11.94139,1.96422 c 0.21753,0.0328 0.41594,0.11079 0.56999,0.23875 0.49901,0.41454 0.44385,1.56988 -0.0982,2.06085 -1.27723,1.15695 -3.07789,-0.0697 -2.25826,-1.5384 0.30981,-0.55514 1.13385,-0.85963 1.78645,-0.7612 z m 23.85126,1.93631 c 0.0232,-0.0186 -0.0246,-0.0871 -0.37879,0.17209 -0.35417,0.2592 0.29776,1.50217 0.39429,1.84846 0.0965,0.34629 0.0585,0.17508 0.0874,0.25233 0.0289,0.0773 0.0172,-0.0199 0.0847,0.21141 0.0675,0.23128 -0.10126,0.32812 0.22575,1.19663 0.32701,0.86851 0.59243,1.83943 0.76636,2.62568 h 5.2e-4 c 0.40879,1.84802 1.94054,2.31895 1.61695,0.49713 -0.39702,-2.23519 -1.7129,-4.09741 -1.7694,-4.77956 -0.0565,-0.68215 0.10599,-0.16229 -0.12765,-0.97613 -0.23364,-0.81384 -0.72341,-1.0708 -0.9002,-1.048 -0.17679,0.0228 -0.0232,0.0186 2e-5,0 0.0232,-0.0186 -0.0232,0.0185 5e-5,-4e-5 z m -10.46034,0.016 c -0.0915,-0.0161 -0.17264,-0.005 -0.24133,0.0382 -0.73525,0.45959 -0.70711,0.59401 0.43666,2.07791 0.96283,1.24916 1.47455,2.26666 2.35438,4.68085 0.41337,1.13427 0.92828,1.38042 1.60662,0.76843 0.92116,-0.83105 -2.78399,-7.32319 -4.15633,-7.56543 z m 20.91086,0.0191 c 0.80763,-0.0106 1.64745,0.48846 1.64745,1.29139 0,0.21338 -0.19552,0.61416 -0.4346,0.89091 -1.33723,1.54794 -3.55294,0.12598 -2.44378,-1.56838 0.27326,-0.41743 0.74636,-0.60756 1.23093,-0.61392 z m -45.04996,0.11834 c 0.492781,0 0.637329,0.14112 0.699699,0.68368 0.07094,0.61709 0.0027,0.68368 -0.699699,0.68368 -0.702371,0 -0.770639,-0.0666 -0.699699,-0.68368 0.06237,-0.54256 0.206919,-0.68368 0.699699,-0.68368 z m -25.085807,0.0372 c 1.186186,0.2052 1.861641,2.10023 0.61805,2.57348 -0.358691,0.13651 -0.672372,0.24055 -0.697632,0.23255 -1.805102,-0.61937 -2.089435,-2.35363 -0.455786,-2.78123 0.186196,-0.0487 0.365913,-0.0541 0.535368,-0.0248 z m 44.638617,1.08158 c -1.05341,0 -0.93274,0.89032 0.29301,2.16318 0.65738,0.68265 1.53984,1.97144 1.96112,2.86391 0.69298,1.46802 0.82654,1.61091 1.39991,1.5012 1.47943,-0.28306 -2.01618,-6.52829 -3.65404,-6.52829 z m -9.84022,2.05259 c -1.47467,0.002 -2.92491,0.40168 -4.05144,1.25212 -1.03559,0.78178 -2.30148,2.76747 -2.03708,3.19567 0.29746,0.48174 1.06069,0.15155 1.81177,-0.78393 2.25211,-2.80502 6.84338,-2.88756 9.46764,-0.17053 1.17159,1.21301 1.84273,0.92628 1.00563,-0.42943 -1.21259,-1.96381 -3.73875,-3.06665 -6.19652,-3.0639 z m -36.270142,8.97258 c -0.420064,-0.0553 -0.839034,0.0578 -1.221631,0.34365 -0.921201,0.68834 -1.194422,25.26567 -0.290938,26.16998 0.74189,0.74257 2.070598,0.6665 2.71663,-0.15555 0.787508,-1.00208 0.810107,-24.90543 0.02429,-25.69197 -0.386892,-0.38725 -0.808285,-0.61078 -1.228349,-0.66611 z m -53.530066,1.15704 c -7.309476,0 -7.309519,1.7e-4 -7.8243285,0.65525 -0.8061213,1.02576 -0.8061213,23.27147 0,24.29723 0.7145765,0.90928 14.9866575,1.05143 15.8791345,0.15813 0.690482,-0.69112 0.639516,-1.86868 -0.113172,-2.62206 -0.609684,-0.61024 -0.60955,-0.6103 -6.458004,-0.6103 -5.848455,0 -5.848738,2e-5 -5.848738,-3.60495 0,-3.60496 -5.7e-5,-3.60495 5.426025,-3.60495 6.061237,0 6.331397,-0.0759 6.331397,-1.78284 0,-1.75178 -0.655248,-1.94613 -6.554639,-1.94613 -5.202338,0 -5.202783,2e-5 -5.202783,-3.60495 0,-3.60496 2.06e-4,-3.60495 5.83737,-3.60495 6.596017,0 6.83059,-0.0644 6.83059,-1.865 0,-1.85155 -0.0579,-1.86448 -8.302852,-1.86448 z m 62.00035,0 c -2.479982,0 -3.221829,3.37922 -0.957047,4.35942 0.993886,0.43016 1.601745,0.26867 2.464449,-0.65371 1.420253,-1.51852 0.530465,-3.70571 -1.507402,-3.70571 z m 28.023098,0 c -2.56673,0 -3.29277,3.13577 -0.99322,4.28966 0.478,0.23987 1.01748,0.37957 1.19941,0.31057 0.18194,-0.0689 0.41822,-0.12506 0.52503,-0.12506 0.10681,0 0.48888,-0.29476 0.84904,-0.65525 1.46805,-1.4694 0.49586,-3.81992 -1.58026,-3.81992 z m 9.04647,0 c -1.50685,0 -1.96022,0.92927 -2.05052,4.20439 -0.0829,3.00551 -0.0827,3.0055 -0.77359,3.0055 -0.37998,0 -0.9857,0.23182 -1.34566,0.51522 -1.34585,1.05962 -0.44914,3.46283 1.29191,3.46283 0.72658,0 0.7264,0 0.82683,4.67362 0.13487,6.27593 1.24221,8.55488 4.67103,9.61285 3.12175,0.96321 6.51943,0.11449 6.66678,-1.66553 0.11877,-1.43497 -0.8422,-2.292 -2.2593,-2.01487 -4.35721,0.8521 -5.13529,-0.12559 -5.14129,-6.45076 -0.004,-4.42172 -0.004,-4.42154 3.36827,-4.35064 3.67073,0.0771 3.86797,0.007 4.24729,-1.50482 0.37521,-1.49567 -0.48684,-1.89764 -4.23023,-1.97404 -3.38903,-0.0692 -3.38894,-0.0693 -3.38894,-3.27629 0,-3.50146 -0.32703,-4.23746 -1.88258,-4.23746 z m 19.45463,0.0501 c -10.41681,-0.086 -11.376,0.11764 -10.71976,2.2779 0.40371,1.32889 0.64679,1.40146 4.72839,1.40146 3.80385,0 3.80387,-4.7e-4 3.87367,10.53993 0.066,9.96191 0.0959,10.56952 0.54312,11.06392 0.65563,0.72472 2.18687,0.71344 2.87063,-0.0212 0.49315,-0.52981 0.50642,-0.82044 0.50642,-11.07426 0,-10.53033 -2.5e-4,-10.53068 3.76567,-10.47998 4.17262,0.0562 4.6793,-0.13374 4.6793,-1.75339 0,-1.81869 -0.28007,-1.8721 -10.24744,-1.9544 z m -56.613598,6.42597 c -0.47445,0.0205 -0.956909,0.22172 -1.333252,0.59841 -0.993502,0.99442 -0.95291,17.48094 0.04496,18.26658 0.777861,0.61243 1.757467,0.6622 2.519226,0.12816 0.824409,-0.57797 0.875524,-17.68693 0.05529,-18.50791 -0.345241,-0.34556 -0.811776,-0.50571 -1.286226,-0.48524 z m 28.161068,0.003 c -1.09737,-0.18387 -2.13751,0.80602 -2.14509,2.41846 -0.0523,11.23393 0.12229,15.97773 0.60617,16.46204 0.66459,0.66524 1.92244,0.64459 2.6541,-0.0434 0.93119,-0.87561 0.8995,-17.30575 -0.0351,-18.24126 -0.34229,-0.34261 -0.71425,-0.53454 -1.08004,-0.59583 z m -65.476103,0.23409 c -0.697473,0 -1.531854,0.78124 -4.180624,3.91553 -2.116958,2.505 -1.680936,2.5569 -4.453474,-0.52917 -2.863852,-3.18772 -3.515171,-3.61565 -4.627108,-3.04012 -1.656553,0.85743 -1.333683,1.90771 1.603519,5.21828 3.831217,4.31824 3.80147,3.35474 0.229444,7.52667 -3.411589,3.98455 -3.583736,4.37917 -2.361613,5.40846 1.404516,1.18291 1.758926,0.97615 5.08186,-2.96571 1.331695,-1.57974 2.498734,-2.84048 2.593124,-2.80138 0.09439,0.0391 1.395983,1.46988 2.89233,3.17913 3.00554,3.43318 3.584257,3.75586 4.889107,2.72852 1.258827,-0.9911 0.663041,-2.09763 -3.8778,-7.20369 -2.028515,-2.28101 -2.081108,-1.79155 0.517798,-4.80591 3.333305,-3.86616 3.533118,-4.13791 3.533118,-4.79661 0,-0.79331 -1.044021,-1.834 -1.839681,-1.834 z m 121.912453,0.002 c -0.7721,0.0534 -1.58038,0.58005 -1.85156,1.4025 -0.27796,0.84303 -0.57414,1.04313 -0.8599,0.58033 -0.9758,-1.58032 -6.68542,-2.23323 -9.10384,-1.04076 -7.5549,3.72512 -6.8648,15.3529 1.05782,17.82526 2.52404,0.78767 6.06761,0.29154 7.83001,-1.09605 0.67917,-0.53472 0.67902,-0.53445 0.98754,0.19998 0.52382,1.24693 2.18997,1.70529 3.12384,0.85938 0.6644,-0.6018 0.70462,-17.54613 0.0434,-18.27743 -0.31342,-0.34665 -0.76406,-0.48525 -1.22732,-0.45321 z m -115.156793,0.0341 c -0.455082,-0.004 -0.92965,0.17791 -1.326017,0.57464 -1.180902,1.18197 -0.872745,25.77153 0.331762,26.47436 2.27953,1.33013 3.03289,0.003 3.03289,-5.34335 0,-4.57591 -6e-5,-4.57593 1.113627,-3.86901 6.439411,4.08751 14.782669,-1.79448 13.573332,-9.56944 -1.006425,-6.47041 -7.758497,-10.04548 -13.242086,-7.01146 -1.659944,0.91843 -1.659492,0.91822 -1.820044,0.18655 -0.199924,-0.91108 -0.904994,-1.43532 -1.663464,-1.44229 z m 137.532173,0.0703 c -1.03762,-0.1405 -2.10788,0.60563 -2.10788,1.7694 0,0.65494 -2.6e-4,0.65483 -0.74156,0.0305 -4.07647,-3.43328 -11.17975,-1.46811 -13.62294,3.76876 -3.77223,8.08562 6.41515,17.30792 13.30462,12.04423 1.13668,-0.86844 1.13661,-0.86836 0.98391,0.76843 -0.48183,5.16451 -6.17437,6.59194 -10.47274,2.62619 -1.27914,-1.18015 -2.30622,-1.06493 -3.24115,0.36329 -1.04911,1.60261 2.63884,4.70937 6.34845,5.34799 4.88611,0.84116 9.22623,-1.49249 10.81795,-5.8167 0.82699,-2.24668 0.58592,-19.68681 -0.28267,-20.44888 -0.29778,-0.26125 -0.64011,-0.40637 -0.98599,-0.4532 z m 12.47366,0.0475 c -4.8063,0.15615 -8.70219,3.74305 -6.62647,7.81555 0.891,1.74811 2.11525,2.40553 7.321,3.93361 2.22331,0.65262 2.85616,1.0996 2.85616,2.01589 0,1.99034 -4.27518,2.4493 -7.46725,0.80151 -1.82645,-0.94284 -1.81632,-0.94179 -2.7404,-0.28319 -1.87928,1.33939 -0.057,3.50944 3.74499,4.45968 5.18699,1.29638 9.89665,-0.96469 10.14512,-4.87051 0.19177,-3.01439 -1.2135,-4.4168 -5.79345,-5.78156 -4.12703,-1.22981 -4.84363,-1.62125 -4.84363,-2.64583 0,-1.85763 3.84157,-2.42336 6.90501,-1.01699 3.40572,1.56349 4.76992,-1.63472 1.4211,-3.33158 -1.61697,-0.81932 -3.32008,-1.14863 -4.92218,-1.09658 z m -105.108832,0.0796 c -0.717483,0.0358 -1.418169,0.15429 -2.073259,0.37208 -8.667731,2.8816 -8.48295,15.32129 0.270268,18.19372 5.052122,1.65789 13.548823,-3.33374 9.362733,-5.50044 -1.06453,-0.551 -1.423206,-0.46742 -2.658749,0.62115 -3.982935,3.50914 -9.80541,0.5528 -9.464539,-4.80539 0.310188,-4.87589 5.698262,-6.84391 9.595797,-3.5047 1.117111,0.95708 1.643801,1.04753 2.539381,0.43408 3.29119,-2.25436 -2.549248,-6.06122 -7.571632,-5.8105 z m 62.314542,3.63079 c 2.9081,-0.11537 5.88721,1.95337 5.92315,5.82549 0.0224,2.41369 -1.31078,4.48286 -3.47317,5.38985 -4.24476,1.78042 -8.8593,-2.30269 -7.68842,-6.80269 0.75774,-2.9122 2.97659,-4.32292 5.23844,-4.41265 z m 22.40483,0.0822 c 2.63709,-0.0428 5.33568,1.64952 5.90507,4.79299 0.41184,2.27358 -0.97956,4.96059 -3.12177,6.02908 -4.71088,2.34969 -9.83724,-2.54423 -7.79384,-7.44037 0.94546,-2.26541 2.95948,-3.34843 5.01054,-3.3817 z m -122.233361,0.0372 c 6.229274,-0.0228 7.937248,8.68017 2.177645,11.09597 -3.280898,1.37613 -7.26022,-0.98636 -7.683252,-4.56148 -0.445352,-3.76376 1.877804,-6.52129 5.505607,-6.53449 z M 163.48201,172.4117 c -0.15353,-0.008 -0.34756,0.10122 -0.58963,0.30231 -0.36689,0.30477 -0.51685,6.92476 -0.16485,7.27707 0.90117,0.902 1.18883,0.0766 1.25833,-3.60701 0.0539,-2.85948 -0.0433,-3.94687 -0.50385,-3.97237 z m 2.15491,0.11265 c -0.36534,-0.12682 -0.85971,0.43173 -0.89659,1.46865 -0.10338,2.90909 0.0976,5.28126 0.48421,5.71851 0.54529,0.61679 1.95381,0.57514 2.29753,-0.0677 0.3546,-0.66319 0.0777,-1.06248 -0.64078,-0.92501 -0.64285,0.12299 -0.85266,-0.1997 -0.85266,-1.31103 0,-0.58864 0.11604,-0.72225 0.68316,-0.78755 0.96441,-0.11108 1.17624,-1.44643 0.22944,-1.44643 -0.68875,0 -0.9126,-0.40088 -0.9126,-1.63607 0,-0.61433 -0.17251,-0.93728 -0.39171,-1.01338 z m -13.01936,0.19947 c -0.23097,0.0558 -0.25012,0.35815 -0.25012,1.37821 0,1.44858 -3.2e-4,1.44854 -1.10536,1.36064 -2.15415,-0.17149 -3.31922,2.51516 -1.76526,4.07056 0.52695,0.52744 0.82158,0.60462 2.23552,0.58342 1.62852,-0.0245 1.62875,-0.0246 1.66605,-3.3538 0.0204,-1.83104 0.0483,-3.46915 0.062,-3.64008 0.0137,-0.17092 -0.22695,-0.34646 -0.53433,-0.39016 -0.13117,-0.0187 -0.23152,-0.0274 -0.30851,-0.009 z m -62.161583,0.009 c -0.491522,0.0699 -0.567259,0.24433 -0.630969,1.44694 -0.07244,1.36742 -0.07259,1.36744 -1.269173,1.28364 -2.411453,-0.16886 -3.292085,3.21934 -1.142566,4.39612 0.627571,0.34357 1.785079,0.36551 1.987476,0.0377 0.102204,-0.16551 0.317544,-0.16178 0.640787,0.0114 0.866149,0.46398 0.973584,0.0621 0.973584,-3.64784 0,-3.59892 -0.0016,-3.60725 -0.559139,-3.52795 z m -14.92312,0.003 c -0.471518,0.0672 -0.548199,0.25644 -0.613399,1.50844 -0.06913,1.32753 -0.109589,1.41317 -0.553971,1.17512 -2.079837,-1.1141 -3.947864,2.58119 -2.106332,4.16667 0.553573,0.47653 0.893343,0.54974 2.312521,0.49764 1.663936,-0.0612 1.663945,-0.0612 1.741495,-2.4231 0.118106,-3.59665 -0.107523,-5.02067 -0.780314,-4.92477 z m 30.882353,0.20102 c -2.4839,0 -2.48409,1.2e-4 -2.48409,0.62167 0,0.54454 0.10799,0.62167 0.86972,0.62167 0.86936,0 0.8692,-2.7e-4 0.8692,2.8174 0,1.54972 0.0784,2.89616 0.17415,2.99206 0.69359,0.69423 0.94457,-0.0222 1.01337,-2.89129 0.07,-2.91826 0.0701,-2.91817 1.05575,-2.91817 0.88577,0 0.98599,-0.0631 0.98599,-0.62167 0,-0.62155 -2e-4,-0.62167 -2.48409,-0.62167 z m 51.74775,0.004 c -1.86884,-0.006 -1.8216,-0.10464 -1.8216,3.75223 0,3.45405 4e-4,3.45405 0.5948,3.45405 0.68937,0 0.89555,-0.4059 0.89555,-1.76062 0,-0.97413 0,-0.9741 1.11776,-0.9741 0.95216,0 1.11776,-0.0736 1.11776,-0.49712 0,-0.81636 -0.0766,-0.87024 -1.24178,-0.87024 -1.11176,0 -1.11776,-0.005 -1.11776,-0.87023 0,-0.87021 -1.7e-4,-0.87008 1.24178,-0.89038 2.45934,-0.0403 1.7012,-1.33559 -0.78651,-1.34359 z m -73.008468,0.0176 c -0.148227,0.0116 -0.294385,0.0731 -0.418062,0.19689 -0.178201,0.17836 -0.365974,0.18542 -0.564307,0.0207 -0.571865,-0.47504 -0.988036,0.0333 -1.87172,2.28771 -0.890519,2.27186 -0.890479,2.27219 -1.773535,0.0594 -0.87775,-2.19946 -1.694422,-2.99511 -2.069641,-2.01641 -0.129493,0.33777 1.145292,3.70754 2.159558,5.70818 0.849698,1.67602 1.77179,0.60022 3.085083,-3.59927 0.343004,-1.09685 0.517745,-1.36347 0.760677,-1.16168 0.578931,0.48092 1.453247,0.16078 1.536857,-0.56276 0.0636,-0.55024 -0.400228,-0.96744 -0.84491,-0.93276 z m 76.644418,0.0134 c -0.0716,-0.0126 -0.16279,-0.007 -0.27802,0.0103 -0.65232,0.0971 -1.09076,0.73919 -0.88005,1.28881 0.33158,0.8649 1.41387,0.49707 1.41387,-0.48059 0,-0.57504 -0.0409,-0.78064 -0.2558,-0.81855 z m 14.73915,0.0729 c -0.63584,0.0358 -1.14264,0.98029 -0.64595,1.47743 0.0968,0.0966 0.40431,0.14377 0.68316,0.10387 0.65977,-0.0945 0.84871,-1.30318 0.24029,-1.53686 -0.0936,-0.0359 -0.18666,-0.0496 -0.2775,-0.0444 z m -51.24183,0.0171 c -0.64149,0 -0.92261,0.5546 -0.64647,1.27486 0.27554,0.71872 1.264,0.30492 1.264,-0.52916 0,-0.62873 -0.0969,-0.7457 -0.61753,-0.7457 z m -92.170087,0.12403 c -0.501737,0 -3.096889,6.01482 -2.860807,6.6306 0.213568,0.55705 0.967442,0.28602 1.334286,-0.48007 0.513094,-1.07151 2.792247,-1.02522 3.203422,0.0651 0.267054,0.70815 1.566312,1.1467 1.566312,0.52865 0,-1.13165 -2.698999,-6.74429 -3.243213,-6.74429 z m 11.191565,0 c -1.73873,0 -1.738912,3e-5 -1.738912,3.35638 0,3.35634 5e-6,3.35639 0.745175,3.35639 0.71757,0 0.745174,-0.0415 0.745174,-1.1188 0,-1.11879 1.77e-4,-1.11879 0.993737,-1.11879 2.070033,0 2.992021,-2.47501 1.484148,-3.98426 -0.394934,-0.39531 -0.829245,-0.49092 -2.229322,-0.49092 z m -6.83059,0.24856 c -0.620975,0 -0.621151,4e-5 -0.621151,3.35639 0,3.35634 1.76e-4,3.35638 0.621151,3.35638 0.620975,0 0.620633,-4e-5 0.620633,-3.35638 0,-3.35635 3.42e-4,-3.35639 -0.620633,-3.35639 z m 7.28741,0.96738 c 0.173961,0.0196 0.38591,0.0804 0.640788,0.17829 0.396165,0.15216 0.552352,1.22184 0.206705,1.41593 -1.072441,0.60221 -1.552876,0.4265 -1.552876,-0.56792 0,-0.77565 0.183499,-1.08517 0.705383,-1.0263 z m 78.388492,0.54106 c -0.13744,0.0288 -0.29525,0.18503 -0.47232,0.4718 -0.0942,0.15195 -0.38259,0.14898 -0.79581,-0.008 -0.4387,-0.16692 -0.91029,-0.15967 -1.4609,0.0222 -2.68228,0.88604 -1.81119,4.90425 1.01441,4.67931 1.24256,-0.0989 1.28366,-0.0649 0.70125,0.57929 -0.50792,0.56179 -1.28414,0.58167 -2.03864,0.0527 -0.38516,-0.27002 -0.65536,-0.31942 -0.82372,-0.1509 -0.34191,0.34223 0.16933,1.26007 0.86765,1.55805 v 5.1e-4 c 2.40668,1.027 3.64732,-0.37681 3.64732,-4.12688 0,-2.10544 -0.22691,-3.16413 -0.63924,-3.07784 z m 61.72182,0.22065 c -1.084,0.019 -2.21382,1.18336 -2.21382,2.66703 0,1.66198 0.86251,2.43101 2.50734,2.23603 1.15416,-0.13682 1.20884,-0.11747 0.96532,0.33797 -0.37159,0.69497 -1.36465,0.87389 -2.11564,0.38137 -0.3444,-0.22584 -0.73437,-0.34358 -0.86713,-0.26148 -0.47284,0.29249 -0.22921,0.88059 0.56586,1.36581 1.20891,0.73776 3.10707,0.36068 3.54965,-0.70539 0.35235,-0.84873 0.44338,-5.23988 0.11679,-5.63376 -0.41451,-0.49997 -0.99632,-0.47949 -0.99632,0.0351 0,0.37285 -0.0457,0.37012 -0.48679,-0.0295 -0.30762,-0.27864 -0.66393,-0.39959 -1.02526,-0.39326 z m -59.4589,0.0114 c -0.62802,0 -1.02945,4.24102 -0.45579,4.81521 0.65467,0.65527 0.94552,-0.0305 1.01492,-2.39417 0.0711,-2.42115 0.0708,-2.42104 -0.55913,-2.42104 z m 10.44122,0.005 c -0.10015,0.0112 -0.22784,0.0842 -0.39481,0.18862 -0.3614,0.22586 -0.62938,0.23045 -1.09502,0.0181 -2.0973,-0.95647 -3.93432,2.47922 -2.23501,4.1801 0.55669,0.55712 0.79646,0.62497 1.85157,0.52349 1.11577,-0.10731 1.1927,-0.0799 0.9679,0.34054 -0.35554,0.66496 -1.36113,0.84086 -2.08618,0.36536 -0.79738,-0.52301 -1.12448,-0.50593 -1.12448,0.0584 0,0.47289 0.58687,1.11289 1.24179,1.35392 2.41014,0.88701 3.66018,-0.83319 3.37292,-4.64209 -0.1431,-1.89732 -0.19823,-2.41997 -0.49868,-2.38642 z m -74.720505,0.005 c -1.913575,-0.15523 -3.33365,2.59625 -1.69602,4.2354 1.014042,1.01497 3.18801,0.89479 3.607532,-0.19947 0.269144,-0.70203 -0.831743,-1.20848 -1.228866,-0.56534 -0.23268,0.37683 -1.264742,0.29712 -1.614372,-0.12454 -0.269567,-0.32513 -0.09869,-0.37311 1.335319,-0.37311 2.158952,0 2.426952,-1.65662 0.43925,-2.71663 -0.286031,-0.15253 -0.569475,-0.23414 -0.842843,-0.25631 z m 49.092095,0.0217 c -1.85157,-0.0349 -3.19332,2.64742 -1.67432,4.23437 1.18778,1.24092 4.22285,0.96741 4.39095,-0.39584 0.36971,-2.99841 0.008,-4.41886 -0.92656,-3.64216 -0.25612,0.2125 -0.49936,0.21144 -0.97203,-0.004 -0.27848,-0.127 -0.55353,-0.18725 -0.81804,-0.19224 z m 30.57798,0.0238 c -1.78027,0.1571 -2.82481,2.53727 -1.46761,4.15169 0.69307,0.82443 2.17814,1.07338 2.78432,0.46664 0.23177,-0.23204 0.29818,-0.23204 0.29818,0 0,0.16409 0.27961,0.29817 0.62115,0.29817 0.61897,0 0.62115,-0.007 0.62115,-2.38022 0,-2.3806 -9e-5,-2.38072 -0.68316,-2.32492 -0.37568,0.0307 -0.99263,-0.0296 -1.37098,-0.13384 -0.2795,-0.077 -0.54873,-0.1 -0.80305,-0.0775 z m -25.21345,0.002 c -0.21519,0.003 -0.44182,0.0664 -0.74156,0.19069 -2.64335,1.09592 -1.67039,4.97723 1.16737,4.65708 1.13583,-0.12814 1.30597,0.0412 0.67645,0.67128 -0.50594,0.50643 -1.12744,0.49433 -2.05724,-0.0398 -1.2995,-0.74649 -1.39514,0.43154 -0.10025,1.23506 1.17099,0.72664 2.9336,0.33201 3.53415,-0.79116 0.89981,-1.68285 0.0818,-6.70146 -0.92759,-5.69113 -0.14313,0.14333 -0.4787,0.11901 -0.87902,-0.0636 -0.25331,-0.1155 -0.45712,-0.17187 -0.67231,-0.16847 z m 31.5066,0.003 c -0.1376,0.005 -0.2854,0.0289 -0.44441,0.0718 -0.34753,0.0938 -1.05143,0.16114 -1.56373,0.14934 -0.93147,-0.0213 -0.93121,-0.0216 -0.93121,2.16886 0,1.20474 0.0743,2.26535 0.16536,2.35645 0.6226,0.62318 1.07642,0.12823 1.07642,-1.17409 0,-2.87644 1.66555,-3.31844 1.78956,-0.47491 0.0705,1.61773 0.10028,1.69034 0.69453,1.69034 0.60958,0 0.62115,-0.036 0.62115,-1.94924 0,-1.96318 -0.44447,-2.87196 -1.40767,-2.83858 z m 33.45378,0.006 c -0.15086,0.006 -0.3145,0.0311 -0.49145,0.0734 -0.41495,0.0991 -1.11765,0.16409 -1.56166,0.14469 -0.80726,-0.0353 -0.80718,-0.0349 -0.80718,2.16111 0,1.20779 0.0789,2.27505 0.17569,2.37195 0.63638,0.63697 1.19158,1.8e-4 1.26608,-1.45211 0.1488,-2.90047 1.40637,-3.08388 1.67225,-0.24391 0.16183,1.72858 0.21793,1.87187 0.70435,1.80247 0.48765,-0.0696 0.52813,-0.22607 0.52813,-2.02468 0,-2.02427 -0.43026,-2.87768 -1.48621,-2.8329 z m -111.315174,0.004 c -0.346919,-0.0284 -0.714428,0.025 -1.07797,0.1757 -1.62551,0.67393 -2.025037,2.74561 -0.771529,4.00027 0.811502,0.81224 1.650496,0.92343 2.733683,0.36277 0.70783,-0.36636 1.1033,-0.95265 0.828373,-1.22783 -0.249099,-0.24932 -1.555977,-0.16508 -1.555977,0.10025 0,0.38358 -0.894949,0.29375 -1.241785,-0.12454 -0.269566,-0.32513 -0.09818,-0.37311 1.335836,-0.37311 1.644948,0 1.644861,4.5e-4 1.644861,-0.86971 0,-1.13722 -0.854732,-1.95869 -1.895492,-2.0438 z m 29.830738,0.002 c -0.85084,-0.0962 -1.751515,0.24405 -2.330091,1.19631 -0.474396,0.78082 -0.47411,0.78051 -0.856795,0.0398 -0.466953,-0.90381 -1.593751,-1.41422 -2.622579,-1.18804 -1.815937,0.39921 -2.429768,2.9996 -0.993738,4.20905 1.004926,0.84635 2.31571,0.86172 3.334164,0.0393 0.976149,-0.78828 0.588228,-1.38854 -0.583427,-0.90278 -0.859186,0.35622 -1.817708,0.27267 -1.963705,-0.17105 -0.21116,-0.64178 3.104146,-0.40201 3.437,0.24856 1.02533,2.00405 4.012487,1.89517 4.693767,-0.17105 0.58286,-1.76767 -0.69653,-3.1397 -2.114596,-3.30006 z m 30.154236,0.0181 c -0.16405,0.0195 -0.33884,0.0644 -0.524,0.13488 -0.32197,0.12255 -0.87148,0.16767 -1.22112,0.10077 -0.50852,-0.0973 -0.66669,-0.005 -0.79116,0.46043 -0.21336,0.79769 -0.2034,3.81426 0.0134,4.03128 0.65056,0.65116 1.19151,5.6e-4 1.26401,-1.52032 0.13301,-2.793 1.49723,-2.80501 1.76371,-0.0155 0.2408,2.5204 1.26763,2.51126 1.26763,-0.0114 0,-2.21211 -0.62418,-3.31637 -1.7725,-3.18017 z m 40.43215,0.0217 c -1.29909,0.18808 -2.45472,1.55732 -1.89032,3.26906 0.15312,0.4644 0.51867,1.01248 0.81184,1.21801 0.7746,0.54305 2.30531,0.47802 2.90628,-0.12351 0.89332,-0.89414 0.35829,-1.42907 -0.93896,-0.93896 -0.76334,0.28839 -1.54513,0.13865 -1.54513,-0.2961 0,-0.14985 0.67138,-0.25632 1.61489,-0.25632 1.81695,0 2.03764,-0.32482 1.19424,-1.7539 -0.54222,-0.91874 -1.37338,-1.23112 -2.15284,-1.11828 z m -119.971486,0.13023 c -0.867448,-0.082 -1.772052,0.28368 -2.290816,1.28778 -0.522531,1.01139 -0.282639,2.27237 0.558622,2.9347 1.20906,0.95193 3.218177,0.441 3.800802,-0.96687 0.719634,-1.73894 -0.622861,-3.11892 -2.068608,-3.25561 z m 35.515145,0.007 c -0.626495,0 -1.269113,3.67768 -0.780831,4.46846 0.0964,0.15608 0.416059,0.24974 0.710551,0.20774 0.895036,-0.12766 0.963395,-4.6762 0.07028,-4.6762 z m 76.262011,0 c -0.69866,0 -1.09187,1.89883 -0.77825,3.75687 0.14115,0.83624 0.2535,0.98343 0.7028,0.91933 0.8891,-0.12682 0.96242,-4.6762 0.0755,-4.6762 z m 14.99909,0 c -0.75449,0 -0.75448,1.2e-4 -0.75448,2.19625 0,1.20787 0.0794,2.27556 0.17622,2.37246 0.77008,0.77079 1.19052,0.0147 1.26142,-2.26859 0.0714,-2.29972 0.0713,-2.30012 -0.68316,-2.30012 z m -124.441504,0.0269 c -0.157213,0.001 -0.259416,0.087 -0.259416,0.2868 0,0.34777 1.288605,3.79416 1.525488,4.07986 0.465087,0.56092 1.045814,0.28075 1.546676,-0.74569 0.464282,-0.95152 0.464455,-0.95109 0.978751,0.0625 0.902781,1.7793 1.468682,1.29287 2.484086,-2.13476 0.430639,-1.45365 0.399327,-1.55022 -0.453719,-1.38699 -0.457767,0.0876 -0.687955,0.36421 -0.904854,1.08882 -0.290812,0.97157 -0.290907,0.972 -0.808736,0.0532 -0.740535,-1.3139 -1.060705,-1.29881 -1.670182,0.0785 -0.531723,1.20169 -0.53202,1.20148 -0.818038,0.0827 -0.182475,-0.71377 -1.148419,-1.46914 -1.620056,-1.46503 z m 121.964134,0.006 c -1.50592,0.007 -1.50585,0.007 -1.50585,2.18333 0,1.1968 0.0743,2.25088 0.16536,2.34198 0.64589,0.64648 1.07642,0.12836 1.07642,-1.29553 0,-1.51045 0.35225,-2.13192 1.21336,-2.13992 0.22235,-0.002 0.43594,-0.24733 0.47904,-0.55036 0.0728,-0.51199 -0.0174,-0.5465 -1.42833,-0.5395 z m -108.662104,0.0139 c -1.527432,-0.097 -1.630242,0.0602 -1.635042,2.50166 -0.0038,1.92679 -0.0036,1.9265 0.741556,1.9265 0.74441,0 0.745175,-10e-4 0.745175,-1.47795 0,-1.36734 0.0513,-1.50297 0.683162,-1.80609 1.113901,-0.53437 0.870556,-1.05482 -0.534851,-1.14412 z m -32.13809,0.56224 c 0.300321,-0.1714 0.661337,0.28029 0.683679,1.06919 0.0048,0.17092 -0.270829,0.31057 -0.612366,0.31057 -0.721441,0 -0.701407,0.0579 -0.336413,-0.99012 0.07182,-0.2062 0.164993,-0.3325 0.2651,-0.38964 z m 60.686735,0.39223 c 0.322872,0.007 0.646335,0.095 0.747241,0.25838 0.215495,0.34905 0.138269,0.37519 -0.822172,0.28009 -0.446591,-0.0442 -0.747136,-0.18478 -0.668176,-0.31265 0.09821,-0.15908 0.420235,-0.23289 0.743107,-0.22582 z m 76.136439,0.0165 c 0.1595,0.001 0.29129,0.11781 0.48369,0.34985 0.26548,0.32032 0.17419,0.37183 -0.65267,0.36484 -0.89965,-0.007 -0.93052,-0.0317 -0.47956,-0.37311 0.30195,-0.22855 0.48903,-0.3427 0.64854,-0.34158 z m 14.80581,0.0202 c 0.88413,-0.0538 1.7532,1.41855 1.02836,2.14405 v 5.2e-4 c -0.40739,0.40772 -1.31565,0.3751 -1.67638,-0.0599 -0.39772,-0.47967 -0.23595,-1.6429 0.27285,-1.96163 0.12232,-0.0766 0.24887,-0.11531 0.37517,-0.12299 z m -115.604826,0.003 c 0.408427,2e-5 0.684712,0.17245 0.684712,0.46561 0,0.12866 -0.391047,0.23409 -0.869197,0.23409 -0.996158,0 -1.165646,-0.41339 -0.262516,-0.64027 0.160156,-0.0402 0.310858,-0.0594 0.447001,-0.0594 z m -8.127153,0.015 c 0.355064,-0.003 0.61495,0.16812 0.61495,0.45062 0,0.12866 -0.334815,0.23409 -0.744658,0.23409 -0.843235,0 -0.998022,-0.3832 -0.25063,-0.62063 0.133333,-0.0424 0.261983,-0.063 0.380338,-0.0641 z m 49.346859,0.10335 c 0.18708,0.014 0.38312,0.078 0.57361,0.19947 0.66766,0.42581 0.7577,1.06191 0.23203,1.64331 -0.8163,0.90281 -1.8464,0.44413 -1.8464,-0.82217 0,-0.65507 0.47953,-1.06268 1.04076,-1.02061 z m 30.55679,0.005 c 0.52787,-0.0455 1.06557,0.40651 1.06557,1.19786 0,0.93591 -0.0464,0.99905 -0.79065,1.07125 -1.00702,0.0976 -1.52704,-0.66864 -1.09606,-1.61541 0.19105,-0.41969 0.50442,-0.62637 0.82114,-0.6537 z m -42.120942,0.009 c 0.20573,0.0349 0.421776,0.13408 0.632519,0.30489 0.484329,0.39255 0.530503,0.5611 0.318327,1.1684 -0.427889,1.22474 -2.107563,1.00672 -2.098063,-0.27233 0.0062,-0.83387 0.530027,-1.30558 1.147217,-1.20096 z m 34.917762,0.0506 c 0.53126,-0.0318 1.07939,0.28738 1.14619,0.98754 0.0484,0.50765 -0.0508,0.92712 -0.24857,1.05265 -0.87816,0.55728 -1.94355,0.0524 -1.94355,-0.92139 0,-0.70416 0.51467,-1.08702 1.04593,-1.1188 z m -84.401563,0.008 c 0.55971,-0.005 1.138948,0.43239 1.138948,1.12965 0,0.28716 -0.134235,0.656 -0.298173,0.8201 -0.812255,0.813 -2.249754,-0.39348 -1.698087,-1.42523 0.1925,-0.36003 0.521486,-0.5217 0.857312,-0.52452 z m 66.521003,0.0108 c 0.84413,0 1.35355,0.96274 0.92914,1.75648 -0.51662,0.96621 -2.22673,0.4765 -2.22673,-0.63768 0,-0.71825 0.46444,-1.1188 1.29759,-1.1188 z m -41.926639,0.0202 c 0.155405,0.0214 0.321604,0.0647 0.49351,0.13074 0.464187,0.17829 0.5269,1.35578 0.09508,1.788 -0.163938,0.16408 -0.476982,0.29869 -0.695565,0.29869 -0.81207,0 -1.213326,-0.87797 -0.842843,-1.84433 0.116647,-0.30425 0.483598,-0.43716 0.949813,-0.3731 z m 77.045429,0.008 c 0.78018,-0.0912 1.44912,1.10499 0.83095,1.85053 -0.16383,0.19758 -0.49454,0.35915 -0.73432,0.35915 -1.00219,0 -1.32094,-1.53056 -0.4346,-2.08669 0.11258,-0.0706 0.22651,-0.10996 0.33797,-0.12299 z m -62.540888,0.015 c 1.07077,-0.15327 1.74391,1.13893 0.987537,1.89601 -0.418294,0.41872 -1.319667,0.37135 -1.701705,-0.0894 -0.466116,-0.56215 -0.0154,-1.70218 0.714168,-1.80661 z m 32.857938,0.0811 c 0.81709,0 0.84233,0.0301 0.84233,0.99477 0,1.30316 -1.37919,1.65949 -1.90996,0.49351 -0.41805,-0.91838 -0.009,-1.48828 1.06763,-1.48828 z m -81.043627,0.12454 c -1.379951,0 -1.449007,0.0297 -1.449007,0.62166 0,0.84865 2.829789,0.97718 3.048909,0.1385 0.179417,-0.68675 0.02472,-0.76016 -1.599902,-0.76016 z"
       style="baseline-shift:baseline;display:inline;overflow:visible;vector-effect:none;enable-background:accumulate;stop-color:#000000;stop-opacity:1"
       id="path2" /></g></svg>
